<svg id="Capa_1" enable-background="new 0 0 512 512" height="512" viewBox="0 0 512 512" width="512" xmlns="http://www.w3.org/2000/svg"><g><g><g><path d="m512 256c0 58.47-19.661 112.384-52.685 155.494h-.051c-128.103 63.334-278.426 63.334-406.528 0h-.051c-33.024-43.11-52.685-97.024-52.685-155.494 0-46.08 12.186-89.344 33.536-126.72.051-.102.103-.205.154-.256 44.083-77.107 127.129-129.024 222.31-129.024s178.227 51.917 222.311 129.024c.051.051.102.154.153.256 21.35 37.376 33.536 80.64 33.536 126.72z" fill="#4c1760"/><g><path d="m512 256c0 58.47-19.661 112.384-52.685 155.494-128.154 63.334-278.477 63.334-406.63 0-33.024-43.11-52.685-97.024-52.685-155.494 0-46.08 12.186-89.344 33.536-126.72.051-.102.103-.205.154-.256 25.395 44.391 63.693 80.435 109.824 103.015 5.222 2.56 10.598 4.966 16.026 7.168 29.03 11.828 60.723 18.484 93.901 18.791h5.12c33.178-.307 64.871-6.963 93.901-18.791 5.427-2.201 10.803-4.607 16.026-7.168 46.08-22.58 84.429-58.624 109.824-103.015.051.051.102.154.153.256 21.349 37.376 33.535 80.64 33.535 126.72z" fill="#3a004d"/></g><g><g><g><g><path d="m432.235 315.28-139.78 16.91-15.26-122.65.59-.44c39.54-30.14 92.18-36.74 137.92-17.22l1.14.49z" fill="#06995a"/><path d="m401.693 69.169-139.646 17.17 15.148 123.2 139.646-17.17z" fill="#56c126"/><path d="m393.589 195.228-5.154-2.835c-29.123-16.165-65.504-10.247-87.982 14.286l12.564 100.145 93.107-11.681z" fill="#56c126"/><path d="m293.957 100.625h93.838v100.705h-93.838z" fill="#ace334" transform="matrix(.993 -.122 .122 .993 -15.877 42.729)"/><g><g><g><path d="m311 205.589c-2.539-20.241 11.819-38.719 32.135-41.268 20.241-2.539 38.718 11.819 41.257 32.06l-.065.084c-21.2 15.529-48.939 19.009-73.327 9.124z" fill="#56c126"/><path d="m352.301 237.674c-20.261 2.542-38.759-11.824-41.301-32.084l73.392-9.207c2.542 20.259-11.83 38.749-32.091 41.291z" fill="#06995a"/></g></g><path d="m356.806 201.818 20.488-4.546-.37-2.947-6.095.765c-.156-.43-.329-.866-.52-1.309-1.822-4.114-5.88-6.845-10.589-7.136-4.299-.266-8.172 1.585-10.122 4.832-1.031 1.715-1.905 3.809-2.765 6.623l-17.91 2.247c-.122-2.326.245-4 1.628-6.828l1.322-2.71-5.412-2.646-1.322 2.71c-2.018 4.129-2.433 6.836-2.203 10.225l-6.221.78.37 2.947 20.6-.617c6.438-.188 12.842-.992 19.121-2.39zm-3.319-4.554c.392-.999.811-1.917 1.274-2.687.785-1.311 2.542-2.049 4.584-1.924 1.83.118 4.123 1.026 5.28 3.214z" fill="#ace334"/><path d="m350.961 206.334c.2-.907.415-1.833.638-2.76l14.128-1.772c-.258 2.271-1.194 3.729-1.302 3.887l-1.731 2.431 4.9 3.499 1.745-2.449c.137-.195 2.351-3.365 2.466-8.129l5.87-.736-.38-3.031-60.21 7.554.38 3.031 6.463-.811c2.152 6.54 8.171 9.763 13.439 9.976 6.778.283 12.12-3.915 13.594-10.69zm-13.34 4.676c-2.796-.116-5.932-1.656-7.49-4.743l15.096-1.894c-.048.227-.097.445-.144.68-1.261 5.764-6.03 6.015-7.462 5.957z" fill="#56c126"/></g></g></g></g><g><g><g><path d="m274.565 328.77-112.86 84.37-74.5-98.96.29-.67c19.1-45.9 61.34-78 110.71-84.05l1.22-.14z" fill="#06995a"/><path d="m124.556 130.311-112.222 84.865 74.87 99.005 112.223-84.864z" fill="#56c126"/><path d="m180.741 243.447-5.881.131c-33.303.613-61.815 23.972-68.965 56.469l61.076 80.353 74.706-56.784z" fill="#56c126"/><path d="m66.028 181.233h93.838v100.705h-93.838z" fill="#ace334" transform="matrix(.798 -.603 .603 .798 -116.826 114.996)"/><g><g><g><path d="m114.475 293.816c-12.345-16.241-9.184-39.427 7.117-51.817 16.24-12.344 39.426-9.184 51.771 7.057l-.014.105c-10.561 24.065-32.817 40.982-58.874 44.655z" fill="#56c126"/><path d="m166.295 300.872c-16.257 12.357-39.465 9.2-51.821-7.056l58.887-44.76c12.357 16.257 9.191 39.46-7.066 51.816z" fill="#06995a"/></g></g><path d="m152.218 267.59 15.448-14.205-1.798-2.365-4.891 3.717c-.35-.294-.719-.585-1.106-.872-3.639-2.646-8.519-2.975-12.74-.866-3.854 1.925-6.276 5.468-6.336 9.255-.033 2.001.261 4.251.928 7.117l-14.37 10.923c-1.272-1.951-1.794-3.583-2.014-6.724l-.215-3.008-6.009.424.215 3.008c.324 4.584 1.322 7.134 3.22 9.951l-4.991 3.794 1.798 2.365 17.515-10.861c5.476-3.39 10.614-7.296 15.346-11.653zm-5.155-2.276c-.162-1.061-.259-2.065-.245-2.964.022-1.528 1.172-3.047 3.002-3.963 1.642-.815 4.082-1.179 6.179.134z" fill="#ace334"/><path d="m149.424 274.427c-.282-.885-.56-1.794-.832-2.708l11.335-8.616c.916 2.094.836 3.825.822 4.016l-.279 2.971 5.994.571.282-2.994c.02-.237.347-4.09-1.942-8.27l4.71-3.58-1.848-2.432-48.31 36.72 1.848 2.432 5.185-3.941c5.141 4.58 11.964 4.351 16.629 1.894 6.009-3.151 8.527-9.462 6.406-16.063zm-9.198 10.734c-2.478 1.302-5.963 1.541-8.859-.349l12.113-9.207c.072.22.139.433.216.66 1.799 5.62-2.202 8.228-3.47 8.896z" fill="#56c126"/></g></g></g></g><g><path d="m255.995 512c-37.17 0-72.55-7.94-104.44-22.27 0-1.96-1.58-3.53-3.54-3.53 0 0-4.26-.11-4.35-.15-21.31-10.41-40.96-23.69-58.42-39.35l-1.68-4.01c-1.45-3.48-4.85-5.74-8.61-5.74-7.98-7.98-15.41-16.49-22.27-25.46v-105.31h203.31l15.88 40.44c21.4 54.53 15.51 115.97-15.88 165.38z" fill="#d85f39"/><g fill="#c94d31"><path d="m74.955 328.46v20.57h10.28v-10.29h10.28v-10.28z"/><path d="m459.315 306.18v105.31c-6.86 8.97-14.3 17.48-22.27 25.46l-.65.12c-4.88.93-8.7 4.75-9.64 9.63-17.46 15.66-37.1 28.94-58.42 39.35-.1.05-4.35.15-4.35.15-1.96 0-3.54 1.57-3.54 3.53-31.89 14.33-67.27 22.27-104.45 22.27v-205.82z"/><g><path d="m212.429 479.437h-29.747v5.12 5.171h29.747v-5.171zm38.963 0h-29.747v5.12 5.171h29.747v-5.171zm-77.927.003h-29.8v6.61c.09.04.19.09.28.13.01-.02.02-.01.03.02 2.51 1.28 5.02 2.45 7.58 3.53h21.91z"/><g><path d="m134.486 328.461h-29.768v5.141 5.141h29.768v-5.141z"/><path d="m173.458 328.461h-29.769v5.141 5.141h29.769v-5.141z"/><path d="m251.398 328.461h-29.768v5.141 5.141h29.768v-5.141z"/><path d="m212.428 328.461h-29.768v5.141 5.141h29.768v-5.141z"/></g><path d="m74.945 394.64v28.91h10.29v-28.91zm0-37.26v28.9h10.29v-28.9zm.01 74.49v5.08c3.34 3.35 6.77 6.6 10.29 9.75v-14.83z"/></g></g></g><g fill="#903d32"><path d="m368.335 479.44v6.61c-.1.05-.21.1-.31.15-2.51 1.28-5.02 2.45-7.58 3.53h-21.91v-10.29z"/><path d="m329.34 489.722h-29.768v-5.141-5.141h29.768v5.141z"/><path d="m290.37 489.722h-29.768v-5.141-5.141h29.768v5.141z"/><path d="m426.755 431.87v14.83c.02-.01.04-.03.06-.05 3.5-3.14 6.91-6.37 10.23-9.7v-5.08zm5.15-74.5h-5.14v28.92h5.14 5.14v-28.92zm0 37.26h-5.14v28.92h5.14 5.14v-28.92z"/><path d="m437.045 328.46v20.57h-5.14-5.14v-10.29h-10.28v-5.14-5.14z"/><path d="m407.281 338.743h-29.767v-5.141-5.141h29.767v5.141z"/><path d="m368.311 338.743h-29.769v-5.141-5.141h29.769v5.141z"/><path d="m329.34 338.743h-29.768v-5.141-5.141h29.768v5.141z"/><path d="m290.37 338.743h-29.768v-5.141-5.141h29.768v5.141z"/></g></g></g></g><g><g><path d="m193.063 160.131c-34.023 0-61.618-27.597-61.618-61.745 0-34.022 27.596-61.617 61.618-61.617l.125.125c21.296 38.307 21.296 84.931-.125 123.237z" fill="#ffbf03"/><path d="m254.731 98.446c0 34.055-27.613 61.685-61.668 61.685v-123.362c34.055 0 61.668 27.622 61.668 61.677z" fill="#f18900"/><g><g><path d="m193.071 140.066c-22.955 0-41.574-18.62-41.574-41.659 0-22.954 18.619-41.573 41.574-41.573l.085.084c14.367 25.846 14.367 57.303-.085 83.148z" fill="#ffe706"/><path d="m234.678 98.447c0 22.977-18.63 41.618-41.607 41.618v-83.231c22.976 0 41.607 18.636 41.607 41.613z" fill="#ffbf03"/></g></g><path d="m195.276 88.396-2.206-23.512h-3.343v6.912c-.502.114-1.013.246-1.534.398-4.848 1.458-8.465 5.606-9.45 10.823-.9 4.763.625 9.346 3.977 11.978 1.771 1.392 3.986 2.661 7.007 4.015v20.311c-2.613-.189-4.432-.833-7.395-2.774l-2.841-1.856-3.712 5.672 2.841 1.856c4.327 2.831 7.291 3.674 11.107 3.892v7.054h3.343l2.197-23.086c.691-7.215.691-14.478.009-21.683zm-5.549 3.067c-1.061-.578-2.026-1.174-2.822-1.799-1.354-1.061-1.932-3.125-1.506-5.388.388-2.026 1.723-4.46 4.327-5.445v12.632z" fill="#ffbf03"/></g><path d="m199.499 95.554c-.985-.35-1.989-.719-2.992-1.098v-16.022c2.5.606 3.996 1.856 4.157 1.998l2.471 2.273 4.592-4.981-2.49-2.292c-.199-.18-3.428-3.096-8.73-3.892v-6.657h-3.437v68.282h3.437v-7.329c7.604-1.487 12.045-7.755 13.02-13.607 1.269-7.528-2.67-14.08-10.028-16.675zm3.352 15.548c-.521 3.106-2.68 6.392-6.344 7.698v-17.12c.246.085.483.17.739.256 6.259 2.216 5.871 7.576 5.605 9.166z" fill="#f18900"/></g></g></svg>